<svg width="256" height="256" viewBox="0 0 256 256" xmlns="http://www.w3.org/2000/svg">
  <path fill="#00356e" d="M 128.5 7.479996 L 235.270004 39.100006 L 235.270004 114.630005 C 235.270004 123.199997 234.449997 131.809998 232.820007 140.220001 C 225.850006 176.330002 203.259995 208.240005 170.850006 227.759995 L 143.880005 244 C 134.41362 249.707031 122.566376 249.707031 113.099998 244 L 86.129997 227.759995 C 53.720001 208.240005 31.129999 176.330002 24.16 140.220001 C 22.540001 131.809998 21.709999 123.199997 21.709999 114.630005 L 21.709999 39.089996 L 128.5 7.479996 M 128.5 -0.579987 L 126.309998 0.070007 L 19.530001 31.690002 L 14 33.330002 L 14 114.630005 C 14 123.699997 14.87 132.800003 16.59 141.690002 C 23.98 179.949997 47.880001 213.729996 82.160004 234.389999 L 109.129997 250.630005 C 121.046791 257.804596 135.953217 257.804596 147.869995 250.630005 L 174.839996 234.389999 C 209.119995 213.740005 233.020004 179.949997 240.410004 141.690002 C 242.132095 132.772919 242.999359 123.711853 243 114.630005 L 243 33.320007 L 237.470001 31.679993 L 130.690002 0.070007 L 128.5 -0.579987 Z"/>
  <path fill="#006fb9" d="M 166.330002 220.25 L 139.360001 236.490005 C 132.677185 240.519882 124.31282 240.519882 117.629997 236.490005 L 90.660004 220.25 C 60.82 202.279999 39.379997 172.759995 32.77 138.550003 C 31.26 130.729996 30.48 122.720001 30.48 114.619995 L 30.48 45.639999 L 128.48999 16.619995 L 226.5 45.639999 L 226.5 114.630005 C 226.5 122.729996 225.720001 130.740005 224.210007 138.559998 C 217.610001 172.759995 196.160004 202.279999 166.320007 220.259995 Z"/>
  <path fill="#ffffff" d="M 158.720001 97.550003 C 158.720001 79.720001 143.279999 65.5 125.050003 67.520004 C 111.080002 69.070007 99.870003 80.389999 98.449997 94.380005 C 97.010002 108.470001 105.269997 120.809998 117.349998 125.619995 L 107.470001 174.779999 C 107.304878 175.598099 107.516045 176.447098 108.045174 177.092514 C 108.574303 177.73793 109.36541 178.111481 110.199997 178.110001 L 146.820007 178.110001 C 148.580002 178.110001 149.889999 176.5 149.550003 174.779999 L 139.669998 125.619995 C 150.830002 121.180008 158.729996 110.300003 158.729996 97.550003 Z"/>
</svg>
